<?xml version="1.0" encoding="utf-8"?>
<!-- Generator: Adobe Illustrator 16.0.4, SVG Export Plug-In . SVG Version: 6.00 Build 0)  -->
<!DOCTYPE svg PUBLIC "-//W3C//DTD SVG 1.1//EN" "http://www.w3.org/Graphics/SVG/1.1/DTD/svg11.dtd">
<svg version="1.1" id="Layer_1" xmlns="http://www.w3.org/2000/svg" xmlns:xlink="http://www.w3.org/1999/xlink" x="0px" y="0px"
	 width="442px" height="405.2px" viewBox="0 0 442 405.2" enable-background="new 0 0 442 405.2" xml:space="preserve">
<g>
	<path d="M270.8,193.4C136.8,185.1,71.9,22.9,71.9,22.9C60.4-0.4,33.3,1.4,20.5,10.1c-16,10.8-17.4,33.7-9.4,54.2
		C58.7,212.6,159,270.2,159,270.2l0.3,131.2h181.2l3.5-72.2l16.3-0.7l3.1,70.5h72.2l-2.1-92C426,218.7,393,201,270.8,193.4z"/>
	<path d="M192.3,88.5c0,46.9,37.8,84.7,84.7,84.7c46.9,0,84.7-37.8,84.7-84.7c0-46.9-37.5-84.7-84.4-84.7
		C230.4,3.8,192.3,41.7,192.3,88.5z"/>
</g>
</svg>
